<?xml version="1.0" encoding="UTF-8"?>
<svg version="1.1" xmlns="http://www.w3.org/2000/svg" width="1080" height="1920">
<path d="M0 0 C356.4 0 712.8 0 1080 0 C1080 256.74 1080 513.48 1080 778 C1065.38406808 784.74581473 1065.38406808 784.74581473 1059.65234375 786.9296875 C1059.03689194 787.16590317 1058.42144012 787.40211884 1057.78733826 787.64549255 C1055.8388775 788.3926162 1053.88825776 789.13389755 1051.9375 789.875 C1049.18799414 790.92628165 1046.43961814 791.98049726 1043.69140625 793.03515625 C1043.02189941 793.29167465 1042.35239258 793.54819305 1041.66259766 793.81248474 C1037.00701789 795.60038308 1032.37975392 797.44912945 1027.76367188 799.33618164 C1017.94256236 803.35034936 1007.99412764 806.78117406 997.90332031 810.05078125 C994.79136381 811.06821203 991.68816392 812.10953754 988.5859375 813.15625 C973.13382178 818.36653346 957.61715756 823.3080031 942 828 C941.0203125 828.29616211 940.040625 828.59232422 939.03125 828.89746094 C921.81354567 834.08707141 904.43781646 838.6211459 887 843 C885.83968262 843.29374512 884.67936523 843.58749023 883.48388672 843.89013672 C854.17073303 851.28273612 824.46164984 857.7718788 794.60888672 862.57617188 C791.74828015 863.04089329 788.89173787 863.52678841 786.03515625 864.015625 C774.02986012 866.06258901 762.01136952 867.9289316 749.94677734 869.58935547 C746.64638405 870.04927772 743.34866952 870.52636161 740.05078125 871.00390625 C727.90981367 872.74477487 715.8071931 874.32402769 703.57788086 875.28149414 C697.53615179 875.75865194 691.52968877 876.38531284 685.51196289 877.10375977 C672.22085783 878.68791659 658.9578034 879.65543867 645.59643555 880.35351562 C644.90020081 880.39028412 644.20396606 880.42705261 643.4866333 880.4649353 C641.60054252 880.56323978 639.71421842 880.65703879 637.82788086 880.75048828 C635.03454183 880.93256574 632.29600543 881.18173419 629.51782227 881.4921875 C622.44676457 882.21809467 615.35118982 882.36595859 608.25 882.5546875 C607.49490143 882.57562344 606.73980286 882.59655937 605.96182251 882.61812973 C589.24558406 883.0744363 572.53311103 883.15428182 555.81152344 883.13037109 C551.80257923 883.12467455 547.79370148 883.12807453 543.78475952 883.13381004 C527.20414593 883.15388881 510.63691903 883.02111458 494.0625 882.546875 C493.35332428 882.526926 492.64414856 882.50697701 491.91348267 882.48642349 C460.37760084 881.57667243 428.66276786 879.04789416 397.33300781 875.27685547 C394.54350408 874.94582813 391.75235037 874.63092557 388.9609375 874.31640625 C327.85313833 867.40995186 266.42367458 857.26930491 207.02734375 841.08203125 C203.98552389 840.25596309 200.93482862 839.47145935 197.87890625 838.69921875 C186.3948458 835.78428898 175.05171996 832.5644956 163.74462891 829.0234375 C157.65608116 827.11767621 151.55717424 825.2872678 145.41650391 823.55712891 C119.171956 816.1350181 93.49031963 806.65860546 68 797 C66.8557959 796.56913086 65.7115918 796.13826172 64.53271484 795.69433594 C41.83120586 787.1375891 41.83120586 787.1375891 32.0625 782.42578125 C27.59233629 780.34464636 23.02155995 778.51931886 18.43530273 776.71020508 C12.0467862 774.14435742 6.23941809 771.11970904 0 768 C0 514.56 0 261.12 0 0 Z " fill="#0098FE" transform="translate(0,0)"/>
</svg>
